<?xml version="1.0" encoding="utf-8"?>
<!-- Generator: Adobe Illustrator 27.6.1, SVG Export Plug-In . SVG Version: 6.00 Build 0)  -->
<svg version="1.1" id="BRIDGE_BANK_LOGO" xmlns="http://www.w3.org/2000/svg" xmlns:xlink="http://www.w3.org/1999/xlink" x="0px"
	 y="0px" viewBox="0 0 657 110" style="enable-background:new 0 0 657 110;" xml:space="preserve">
<style type="text/css">
	.st0{fill:#FF3A03;}
	.st1{fill:#FFFFFF;}
</style>
<g>
	<path class="st0" d="M177,31.5L151.6,6.1h-45L90.8,21.9L75,6.1H30L4.6,31.5L27,53.9L4.6,76.3L30,101.7h45l15.8-15.8l15.8,15.8h45
		L177,76.3l-22.4-22.4L177,31.5z M109.1,12.2H149l19.3,19.3L149,50.8h-29.3L95.1,26.2L109.1,12.2z M72.4,95.5H32.6L13.3,76.3
		L32.6,57h29.3l24.6,24.6L72.4,95.5z M149,95.5h-39.9L64.4,50.8H32.6L13.3,31.5l19.3-19.3h39.9L117.2,57H149l19.3,19.3L149,95.5z"/>
	<g>
		<path class="st1" d="M243.9,42.4c1.7,2.2,2.6,4.6,2.6,7.4c0,2.5-0.6,4.7-1.9,6.6c-1.2,1.9-3,3.4-5.4,4.5c-2.3,1.1-5.1,1.6-8.3,1.6
			h-20.3v-47H230c3.2,0,5.9,0.5,8.3,1.5c2.3,1,4.1,2.5,5.3,4.3s1.8,3.9,1.8,6.3c0,2.7-0.7,5-2.2,6.9c-1.5,1.8-3.4,3.1-5.8,3.9
			C240,38.9,242.2,40.2,243.9,42.4z M220.1,34.9h8.6c2.2,0,4-0.5,5.2-1.5s1.8-2.5,1.8-4.3c0-1.9-0.6-3.3-1.8-4.4
			c-1.2-1-2.9-1.6-5.2-1.6h-8.6V34.9z M235,53.2c1.3-1.1,1.9-2.6,1.9-4.6s-0.7-3.6-2-4.8c-1.3-1.1-3.2-1.7-5.5-1.7h-9.3v12.7h9.5
			C231.9,54.9,233.7,54.3,235,53.2z"/>
		<path class="st1" d="M279.3,62.5L269,44.2h-4.4v18.3h-9.4v-47h17.7c3.6,0,6.7,0.6,9.3,1.9c2.6,1.3,4.5,3,5.8,5.2s1.9,4.6,1.9,7.3
			c0,3.1-0.9,5.9-2.7,8.4c-1.8,2.5-4.5,4.2-8,5.2l11.3,19.1L279.3,62.5L279.3,62.5z M264.5,37.1h7.9c2.6,0,4.5-0.6,5.7-1.9
			c1.3-1.2,1.9-3,1.9-5.2s-0.6-3.8-1.9-5s-3.2-1.8-5.7-1.8h-7.9V37.1z"/>
		<path class="st1" d="M346.2,18.4c3.8,1.9,6.6,4.7,8.7,8.3c2,3.6,3.1,7.7,3.1,12.4s-1,8.8-3.1,12.4c-2,3.5-4.9,6.3-8.7,8.2
			c-3.8,1.9-8.1,2.9-13,2.9h-16.4v-47h16.4C338.1,15.5,342.5,16.5,346.2,18.4z M344.3,50.5c2.7-2.7,4-6.5,4-11.4s-1.3-8.7-4-11.5
			s-6.5-4.1-11.5-4.1h-6.7v31.1h6.7C337.8,54.5,341.6,53.2,344.3,50.5z"/>
		<path class="st1" d="M398.8,29.7c-1.1-2-2.6-3.5-4.4-4.5c-1.9-1-4.1-1.6-6.6-1.6c-2.8,0-5.3,0.6-7.4,1.9c-2.2,1.3-3.8,3.1-5.1,5.4
			c-1.2,2.3-1.8,5-1.8,8.1s0.6,5.9,1.9,8.2c1.2,2.3,3,4.1,5.2,5.4c2.2,1.3,4.8,1.9,7.7,1.9c3.6,0,6.5-1,8.8-2.9s3.8-4.6,4.5-8h-16.2
			v-7.2h25.5v8.2c-0.6,3.3-2,6.3-4,9.1c-2.1,2.8-4.7,5-8,6.7s-6.9,2.5-11,2.5c-4.5,0-8.6-1-12.3-3.1c-3.7-2-6.5-4.9-8.6-8.5
			s-3.1-7.8-3.1-12.4s1-8.8,3.1-12.4c2.1-3.7,5-6.5,8.6-8.6c3.7-2,7.7-3.1,12.2-3.1c5.3,0,9.9,1.3,13.8,3.9s6.6,6.2,8.1,10.9
			L398.8,29.7L398.8,29.7z"/>
		<path class="st1" d="M427.6,23.1v11.8h15.8v7.5h-15.8v12.5h17.9v7.7h-27.3V15.4h27.3v7.7C445.5,23.1,427.6,23.1,427.6,23.1z"/>
		<path class="st1" d="M504.6,42.4c1.7,2.2,2.6,4.6,2.6,7.4c0,2.5-0.6,4.7-1.9,6.6c-1.2,1.9-3,3.4-5.4,4.5c-2.3,1.1-5.1,1.6-8.3,1.6
			h-20.3v-47h19.4c3.2,0,5.9,0.5,8.3,1.5c2.3,1,4.1,2.5,5.3,4.3c1.2,1.8,1.8,3.9,1.8,6.3c0,2.7-0.7,5-2.2,6.9
			c-1.5,1.8-3.4,3.1-5.8,3.9C500.7,38.9,502.9,40.2,504.6,42.4z M480.8,34.9h8.6c2.2,0,4-0.5,5.2-1.5s1.8-2.5,1.8-4.3
			c0-1.9-0.6-3.3-1.8-4.4c-1.2-1-2.9-1.6-5.2-1.6h-8.6V34.9z M495.7,53.2c1.3-1.1,1.9-2.6,1.9-4.6s-0.7-3.6-2-4.8
			c-1.3-1.1-3.2-1.7-5.5-1.7h-9.3v12.7h9.5C492.6,54.9,494.4,54.3,495.7,53.2z"/>
		<path class="st1" d="M542.3,53.6h-18.7l-3.1,9h-9.9l16.9-47.1h11l16.9,47.1h-10L542.3,53.6z M539.8,46L533,26.3L526.2,46H539.8z"
			/>
		<path class="st1" d="M600.7,62.5h-9.4l-21.4-32.3v32.3h-9.4V15.4h9.4l21.4,32.4V15.4h9.4V62.5z"/>
		<path class="st1" d="M635.9,62.6l-17.1-21v21h-9.4v-47h9.4v21.1l17.1-21.1h11.4l-19.4,23.3l20,23.7
			C647.9,62.6,635.9,62.6,635.9,62.6z"/>
		<path class="st1" d="M226.1,81.2h-3.6c-0.7-1.3-2-2-3.7-2c-2.8,0-4.8,2-4.8,5.2s2,5.2,4.9,5.2c2.4,0,4-1.4,4.5-3.6H218v-2.4h8.5
			v2.8c-0.6,3.2-3.5,6.1-7.7,6.1c-4.6,0-8.1-3.3-8.1-8s3.5-8.1,8-8.1C222.3,76.3,225.1,78.1,226.1,81.2z"/>
		<path class="st1" d="M238,76.5c3.8,0,5.7,2.2,5.7,4.8c0,1.9-1.1,3.9-3.6,4.5l3.8,6.4h-3.7l-3.5-6.1h-1.5v6.1H232V76.5H238z
			 M237.9,79.1h-2.6v4.6h2.6c1.8,0,2.6-0.9,2.6-2.3C240.5,80,239.7,79.1,237.9,79.1z"/>
		<path class="st1" d="M256.6,92.4c-4.5,0-8.1-3.3-8.1-8.1c0-4.7,3.6-8.1,8.1-8.1s8.1,3.3,8.1,8.1S261.1,92.4,256.6,92.4z
			 M256.6,89.6c2.8,0,4.8-2.1,4.8-5.3c0-3.2-2-5.2-4.8-5.2c-2.9,0-4.8,2-4.8,5.2C251.8,87.5,253.8,89.6,256.6,89.6z"/>
		<path class="st1" d="M270.1,76.5h3.2v9.8c0,2.2,1.2,3.3,3.2,3.3s3.2-1.1,3.2-3.3v-9.8h3.2v9.7c0,4.2-3,6.2-6.4,6.2s-6.3-2-6.3-6.2
			v-9.7H270.1z"/>
		<path class="st1" d="M295,86.2h-2.6v6.1h-3.2V76.5h5.8c3.8,0,5.7,2.1,5.7,4.9C300.7,83.8,299.1,86.2,295,86.2z M294.9,83.7
			c1.8,0,2.6-0.9,2.6-2.3s-0.8-2.3-2.6-2.3h-2.5v4.6C292.4,83.7,294.9,83.7,294.9,83.7z"/>
		<path class="st1" d="M307.3,15.5v47h-9.4v-47H307.3z"/>
	</g>
</g>
</svg>
